<svg width="300" height="284" fill="none" xmlns="http://www.w3.org/2000/svg"><g clip-path="url(#add-product-finish_svg__clip0_26683_191575)"><g filter="url(#add-product-finish_svg__filter0_f_26683_191575)"><circle cx="150" cy="142" r="85" fill="#E9F1FE"></circle></g><g clip-path="url(#add-product-finish_svg__clip1_26683_191575)"><path d="M261 120.712c0-32.556-24.874-53.397-38.869-59.048-27.492-11.1-54.503-5.617-73.001 14.1-34.194 36.449-94.412 7.617-107.607 44.948C27.074 161.59 71.5 199 149.13 199 224.16 199 261 160.405 261 120.712z" fill="#E8F2FF"></path><g filter="url(#add-product-finish_svg__filter1_d_26683_191575)"><rect x="70" y="73" width="160" height="132" rx="2" fill="#fff"></rect></g><path d="M70 75a2 2 0 012-2h156a2 2 0 012 2v42H70V75z" fill="url(#add-product-finish_svg__paint0_linear_26683_191575)"></path><rect x="85" y="91" width="61" height="10" rx="2" fill="#000" fill-opacity="0.08"></rect><g filter="url(#add-product-finish_svg__filter2_d_26683_191575)"><rect x="85" y="108" width="60" height="38" rx="2" fill="#fff"></rect></g><path d="M103.365 122.354a.99.99 0 01.98-.854h20.31a.99.99 0 01.98.854l2.21 16.021a.99.99 0 01-.98 1.125h-24.73a.99.99 0 01-.98-1.125l2.21-16.021z" fill="#C8D6F2"></path><mask id="add-product-finish_svg__a" maskUnits="userSpaceOnUse" x="101" y="121" width="27" height="19" style="mask-type: alpha;"><path d="M103.365 122.354a.99.99 0 01.98-.854h20.31a.99.99 0 01.98.854l2.21 16.021a.99.99 0 01-.98 1.125h-24.73a.99.99 0 01-.98-1.125l2.21-16.021z" fill="#C8D6F2"></path></mask><g mask="url(#add-product-finish_svg__a)"><circle cx="114.125" cy="117.215" r="16.077" fill="url(#add-product-finish_svg__paint1_linear_26683_191575)"></circle></g><circle cx="109.673" cy="124.141" r="2.226" fill="#A8B6DA"></circle><circle cx="118.577" cy="124.141" r="2.226" fill="#A8B6DA"></circle><circle cx="109.673" cy="124.141" r="1.484" fill="#7C8AAA"></circle><circle cx="118.577" cy="124.141" r="1.484" fill="#7C8AAA"></circle><path opacity="0.3" d="M107.75 121.5h3.75l-.268 3h-3.214l-.268-3z" fill="url(#add-product-finish_svg__paint2_linear_26683_191575)" fill-opacity="0.7"></path><path opacity="0.3" d="M116.75 121.5h3.75l-.268 3h-3.214l-.268-3z" fill="url(#add-product-finish_svg__paint3_linear_26683_191575)" fill-opacity="0.7"></path><path d="M103.365 122.354a.99.99 0 01.98-.854h20.31a.99.99 0 01.98.854l2.21 16.022a.99.99 0 01-.98 1.124h-24.73a.99.99 0 01-.98-1.124l2.21-16.022z" fill="#000" fill-opacity="0.08"></path><path d="M118.577 123.894v-4.452a4.452 4.452 0 00-4.452-4.452v0a4.452 4.452 0 00-4.452 4.452v4.452" stroke="url(#add-product-finish_svg__paint4_linear_26683_191575)" stroke-width="2.123" stroke-linecap="round" stroke-linejoin="round"></path><g filter="url(#add-product-finish_svg__filter3_d_26683_191575)"><rect x="155" y="108" width="60" height="38" rx="2" fill="#fff"></rect></g><path d="M200.664 119.059c.056.205-.015.43-.134.607l-3.805 5.661c-.141.219-.438.339-.685.339a1.97 1.97 0 01-.345-.035l-3.05-.749v13.412c0 .41-.289.706-.706.706h-14.823a.678.678 0 01-.706-.706v-13.412l-2.739.756c-.318.098-.593-.029-.769-.304l-3.777-5.647a.713.713 0 01-.099-.593c.05-.212.198-.353.389-.452l7.701-3.642h3.529c.417 0 .706.289.706.706 0 1.454 2.04 2.485 3.494 2.485 1.454 0 3.565-1.024 3.565-2.485 0-.41.289-.706.706-.706h3.529l7.624 3.572a.762.762 0 01.395.487z" fill="#B8C5DF"></path><mask id="add-product-finish_svg__b" maskUnits="userSpaceOnUse" x="169" y="115" width="32" height="24" style="mask-type: alpha;"><path d="M200.664 119.059c.056.205-.015.43-.134.607l-3.805 5.661c-.141.219-.438.339-.685.339a1.97 1.97 0 01-.345-.035l-3.05-.749v13.412c0 .41-.289.706-.706.706h-14.823a.678.678 0 01-.706-.706v-13.412l-2.739.756c-.318.098-.593-.029-.769-.304l-3.777-5.647a.713.713 0 01-.099-.593c.05-.212.198-.353.389-.452l7.701-3.642h3.529c.417 0 .706.289.706.706 0 1.454 2.04 2.485 3.494 2.485 1.454 0 3.565-1.024 3.565-2.485 0-.41.289-.706.706-.706h3.529l7.624 3.572a.762.762 0 01.395.487z" fill="#B8C5DF"></path></mask><g mask="url(#add-product-finish_svg__b)"><path d="M177.5 115c1 9-1.167 10.049-2.5 11h-8v-11h10.5z" fill="url(#add-product-finish_svg__paint5_linear_26683_191575)"></path><path d="M192.5 115c-1 9-.078 10.049 1.255 11h8v-11H192.5z" fill="url(#add-product-finish_svg__paint6_linear_26683_191575)"></path><path stroke="url(#add-product-finish_svg__paint7_linear_26683_191575)" stroke-linecap="round" stroke-linejoin="round" d="M176.5 135.5h16v1h-16z"></path></g><g filter="url(#add-product-finish_svg__filter4_d_26683_191575)"><rect x="85" y="156" width="60" height="38" rx="2" fill="#fff"></rect></g><path d="M98.553 179.221c0-1.44 2.913-3.864 6.965-4.046l1.553-1.494.042-5.141c.206-1.112 1.68-4.019 4.04-4.019 1.091 0 3.349.75 4.372.75 1.023 0 3.282-.75 4.375-.75 2.338 0 3.817 2.928 3.999 4.085l.011 5.111 1.563 1.426c4.061.759 6.974 2.618 6.974 4.078 0 2.39-7.588 5.779-16.947 5.779-9.361 0-16.947-3.389-16.947-5.779z" fill="#B8C5DF"></path><mask id="add-product-finish_svg__c" maskUnits="userSpaceOnUse" x="98" y="164" width="35" height="21" style="mask-type: alpha;"><path d="M98.553 179.221c0-1.44 2.913-3.864 6.965-4.046l1.553-1.494.042-5.141c.206-1.112 1.68-4.019 4.04-4.019 1.091 0 3.349.75 4.372.75 1.023 0 3.282-.75 4.375-.75 2.338 0 3.817 2.928 3.999 4.085l.011 5.111 1.563 1.426c4.061.759 6.974 2.618 6.974 4.078 0 2.39-7.588 5.779-16.947 5.779-9.361 0-16.947-3.389-16.947-5.779z" fill="#B8C5DF"></path></mask><g mask="url(#add-product-finish_svg__c)"><path d="M115.556 158.678c2.065 25.819-2.408 28.829-5.161 31.557H93.877v-31.557h21.679z" fill="url(#add-product-finish_svg__paint8_linear_26683_191575)"></path><path d="M105.565 173.872c1.987 1.169 4.235 2.922 9.934 2.922 5.7 0 7.948-1.52 9.935-2.922" stroke="url(#add-product-finish_svg__paint9_linear_26683_191575)" stroke-width="2.338" stroke-linejoin="round"></path></g><g filter="url(#add-product-finish_svg__filter5_d_26683_191575)"><rect x="155" y="156" width="60" height="38" rx="2" fill="#fff"></rect></g><g clip-path="url(#add-product-finish_svg__clip2_26683_191575)"><path d="M175 177h23a3 3 0 013 3v2h-26v-5z" fill="url(#add-product-finish_svg__paint10_linear_26683_191575)"></path><path d="M192 173.993c-.828-.47-1.78-1.192-2.63-1.896l-4.35-5.66a1.121 1.121 0 00-2 .556H183v3h-3.582a1.018 1.018 0 01-.714-.296s-.704-1.704-1.704-1.704h-1a1 1 0 00-1 1v9h11c3 0 4 2 7 2h8v-1c0-3-6.906-3.812-9-5zM192 181.993c-1.264 0-2.094-.414-3.052-.894-1.036-.52-2.212-1.106-3.948-1.106h-10v3a1 1 0 001 1h8a1.002 1.002 0 001-1v-1c1.264 0 2.092.414 3.052.894 1.038.52 2.212 1.106 3.948 1.106h8a1.002 1.002 0 001-1v-1h-9z" fill="#B8C5DF"></path><mask id="add-product-finish_svg__d" maskUnits="userSpaceOnUse" x="175" y="166" width="26" height="18" style="mask-type: alpha;"><path d="M192 173.993c-.828-.47-1.78-1.192-2.63-1.896l-4.35-5.66a1.121 1.121 0 00-2 .556H183v3h-3.582a1.018 1.018 0 01-.714-.296s-.704-1.704-1.704-1.704h-1a1 1 0 00-1 1v9h11c3 0 4 2 7 2h8v-1c0-3-6.906-3.812-9-5zM192 181.993c-1.264 0-2.094-.414-3.052-.894-1.036-.52-2.212-1.106-3.948-1.106h-10v3a1 1 0 001 1h8a1.002 1.002 0 001-1v-1c1.264 0 2.092.414 3.052.894 1.038.52 2.212 1.106 3.948 1.106h8a1.002 1.002 0 001-1v-1h-9z" fill="#B8C5DF"></path></mask><g mask="url(#add-product-finish_svg__d)"><path d="M172 174.748c15.183 1.214 16.953-1.416 18.557-3.035V162H172v12.748z" fill="url(#add-product-finish_svg__paint11_linear_26683_191575)"></path></g></g><circle cx="226" cy="77" r="20" fill="#356DFF"></circle><path fill-rule="evenodd" clip-rule="evenodd" d="M235.481 73.623a.142.142 0 010 .202l-9.185 9.185a1.428 1.428 0 01-2.02 0l-6.328-6.327a.143.143 0 010-.203l1.818-1.818a.143.143 0 01.202 0l5.318 5.318 8.174-8.175a.143.143 0 01.202 0l1.819 1.818z" fill="#fff"></path><circle cx="78" cy="81" r="2" fill="#4D5677"></circle><circle cx="85" cy="81" r="2" fill="#4D5677"></circle><circle cx="92" cy="81" r="2" fill="#4D5677"></circle></g></g><defs><linearGradient id="add-product-finish_svg__paint0_linear_26683_191575" x1="70" y1="95" x2="230" y2="95" gradientUnits="userSpaceOnUse"><stop stop-color="#5D6684"></stop><stop offset="1" stop-color="#878FAA"></stop></linearGradient><linearGradient id="add-product-finish_svg__paint1_linear_26683_191575" x1="115" y1="134" x2="114" y2="119.5" gradientUnits="userSpaceOnUse"><stop stop-opacity="0.08"></stop><stop offset="1" stop-color="#fff" stop-opacity="0"></stop></linearGradient><linearGradient id="add-product-finish_svg__paint2_linear_26683_191575" x1="109.625" y1="121.5" x2="109.625" y2="124.5" gradientUnits="userSpaceOnUse"><stop stop-color="#1E2A48"></stop><stop offset="1" stop-color="#292D38" stop-opacity="0"></stop></linearGradient><linearGradient id="add-product-finish_svg__paint3_linear_26683_191575" x1="118.625" y1="121.5" x2="118.625" y2="124.5" gradientUnits="userSpaceOnUse"><stop stop-color="#1E2A48"></stop><stop offset="1" stop-color="#292D38" stop-opacity="0"></stop></linearGradient><linearGradient id="add-product-finish_svg__paint4_linear_26683_191575" x1="114.125" y1="114.99" x2="114.125" y2="123.894" gradientUnits="userSpaceOnUse"><stop stop-color="#AEB8CE"></stop><stop offset="1" stop-color="#697591"></stop></linearGradient><linearGradient id="add-product-finish_svg__paint5_linear_26683_191575" x1="168.588" y1="123.985" x2="178.595" y2="119.748" gradientUnits="userSpaceOnUse"><stop stop-color="#fff" stop-opacity="0"></stop><stop offset="1" stop-opacity="0.08"></stop></linearGradient><linearGradient id="add-product-finish_svg__paint6_linear_26683_191575" x1="200.168" y1="123.985" x2="190.16" y2="119.748" gradientUnits="userSpaceOnUse"><stop stop-color="#fff" stop-opacity="0"></stop><stop offset="1" stop-opacity="0.08"></stop></linearGradient><linearGradient id="add-product-finish_svg__paint7_linear_26683_191575" x1="176" y1="136" x2="194" y2="136" gradientUnits="userSpaceOnUse"><stop stop-color="#B3BFDC"></stop><stop offset="1" stop-color="#A4B2D1"></stop></linearGradient><linearGradient id="add-product-finish_svg__paint8_linear_26683_191575" x1="97.156" y1="184.453" x2="119.451" y2="177.659" gradientUnits="userSpaceOnUse"><stop stop-color="#fff" stop-opacity="0"></stop><stop offset="1" stop-opacity="0.08"></stop></linearGradient><linearGradient id="add-product-finish_svg__paint9_linear_26683_191575" x1="103.578" y1="173.872" x2="126.098" y2="174.497" gradientUnits="userSpaceOnUse"><stop stop-color="#AEB8CE"></stop><stop offset="1" stop-color="#697591"></stop></linearGradient><linearGradient id="add-product-finish_svg__paint10_linear_26683_191575" x1="175" y1="179" x2="201" y2="181" gradientUnits="userSpaceOnUse"><stop stop-color="#A4AEC5"></stop><stop offset="1" stop-color="#A7B4D4"></stop></linearGradient><linearGradient id="add-product-finish_svg__paint11_linear_26683_191575" x1="183.5" y1="162" x2="185.557" y2="175.258" gradientUnits="userSpaceOnUse"><stop stop-color="#fff" stop-opacity="0"></stop><stop offset="1" stop-opacity="0.08"></stop></linearGradient><filter id="add-product-finish_svg__filter0_f_26683_191575" x="5" y="-3" width="290" height="290" filterUnits="userSpaceOnUse" color-interpolation-filters="sRGB"><feFlood flood-opacity="0" result="BackgroundImageFix"></feFlood><feBlend in="SourceGraphic" in2="BackgroundImageFix" result="shape"></feBlend><feGaussianBlur stdDeviation="30" result="effect1_foregroundBlur_26683_191575"></feGaussianBlur></filter><filter id="add-product-finish_svg__filter1_d_26683_191575" x="30" y="37" width="240" height="212" filterUnits="userSpaceOnUse" color-interpolation-filters="sRGB"><feFlood flood-opacity="0" result="BackgroundImageFix"></feFlood><feColorMatrix in="SourceAlpha" values="0 0 0 0 0 0 0 0 0 0 0 0 0 0 0 0 0 0 127 0" result="hardAlpha"></feColorMatrix><feOffset dy="4"></feOffset><feGaussianBlur stdDeviation="20"></feGaussianBlur><feColorMatrix values="0 0 0 0 0 0 0 0 0 0 0 0 0 0 0 0 0 0 0.12 0"></feColorMatrix><feBlend in2="BackgroundImageFix" result="effect1_dropShadow_26683_191575"></feBlend><feBlend in="SourceGraphic" in2="effect1_dropShadow_26683_191575" result="shape"></feBlend></filter><filter id="add-product-finish_svg__filter2_d_26683_191575" x="65" y="88" width="100" height="78" filterUnits="userSpaceOnUse" color-interpolation-filters="sRGB"><feFlood flood-opacity="0" result="BackgroundImageFix"></feFlood><feColorMatrix in="SourceAlpha" values="0 0 0 0 0 0 0 0 0 0 0 0 0 0 0 0 0 0 127 0" result="hardAlpha"></feColorMatrix><feOffset></feOffset><feGaussianBlur stdDeviation="10"></feGaussianBlur><feColorMatrix values="0 0 0 0 0 0 0 0 0 0 0 0 0 0 0 0 0 0 0.05 0"></feColorMatrix><feBlend in2="BackgroundImageFix" result="effect1_dropShadow_26683_191575"></feBlend><feBlend in="SourceGraphic" in2="effect1_dropShadow_26683_191575" result="shape"></feBlend></filter><filter id="add-product-finish_svg__filter3_d_26683_191575" x="135" y="88" width="100" height="78" filterUnits="userSpaceOnUse" color-interpolation-filters="sRGB"><feFlood flood-opacity="0" result="BackgroundImageFix"></feFlood><feColorMatrix in="SourceAlpha" values="0 0 0 0 0 0 0 0 0 0 0 0 0 0 0 0 0 0 127 0" result="hardAlpha"></feColorMatrix><feOffset></feOffset><feGaussianBlur stdDeviation="10"></feGaussianBlur><feColorMatrix values="0 0 0 0 0 0 0 0 0 0 0 0 0 0 0 0 0 0 0.05 0"></feColorMatrix><feBlend in2="BackgroundImageFix" result="effect1_dropShadow_26683_191575"></feBlend><feBlend in="SourceGraphic" in2="effect1_dropShadow_26683_191575" result="shape"></feBlend></filter><filter id="add-product-finish_svg__filter4_d_26683_191575" x="65" y="136" width="100" height="78" filterUnits="userSpaceOnUse" color-interpolation-filters="sRGB"><feFlood flood-opacity="0" result="BackgroundImageFix"></feFlood><feColorMatrix in="SourceAlpha" values="0 0 0 0 0 0 0 0 0 0 0 0 0 0 0 0 0 0 127 0" result="hardAlpha"></feColorMatrix><feOffset></feOffset><feGaussianBlur stdDeviation="10"></feGaussianBlur><feColorMatrix values="0 0 0 0 0 0 0 0 0 0 0 0 0 0 0 0 0 0 0.05 0"></feColorMatrix><feBlend in2="BackgroundImageFix" result="effect1_dropShadow_26683_191575"></feBlend><feBlend in="SourceGraphic" in2="effect1_dropShadow_26683_191575" result="shape"></feBlend></filter><filter id="add-product-finish_svg__filter5_d_26683_191575" x="135" y="136" width="100" height="78" filterUnits="userSpaceOnUse" color-interpolation-filters="sRGB"><feFlood flood-opacity="0" result="BackgroundImageFix"></feFlood><feColorMatrix in="SourceAlpha" values="0 0 0 0 0 0 0 0 0 0 0 0 0 0 0 0 0 0 127 0" result="hardAlpha"></feColorMatrix><feOffset></feOffset><feGaussianBlur stdDeviation="10"></feGaussianBlur><feColorMatrix values="0 0 0 0 0 0 0 0 0 0 0 0 0 0 0 0 0 0 0.05 0"></feColorMatrix><feBlend in2="BackgroundImageFix" result="effect1_dropShadow_26683_191575"></feBlend><feBlend in="SourceGraphic" in2="effect1_dropShadow_26683_191575" result="shape"></feBlend></filter><clipPath id="add-product-finish_svg__clip0_26683_191575"><path fill="#fff" d="M0 0h300v284H0z"></path></clipPath><clipPath id="add-product-finish_svg__clip1_26683_191575"><path fill="#fff" d="M0 0h300v284H0z"></path></clipPath><clipPath id="add-product-finish_svg__clip2_26683_191575"><path fill="#fff" transform="translate(175 166)" d="M0 0h26v17.992H0z"></path></clipPath></defs></svg>