<svg width="217" height="20" fill="none" xmlns="http://www.w3.org/2000/svg"><path d="M190.075 0h-3.2v3.166h3.2V0zM107.137 15.94V.38h11.082v2.817h-7.817v9.928h7.817v2.816h-11.082zM128.417 15.863v-7.15c0-1.446-.673-2.122-2.122-2.122-1.281 0-2.17.838-2.582 1.338a.226.226 0 00-.051.147v7.784h-3.246V4.011h3.246v1.035c.83-.86 2.202-1.37 3.705-1.37.126 0 .252.004.38.01 2.502.134 3.938 1.532 3.938 3.835v8.342h-3.271.003zM138.34 15.867c-2.161 0-3.3-1.083-3.3-3.13v-5.73h-1.903V4.314h1.903V1.27h3.148v3.045h2.332v2.691h-2.332v4.94c0 .71.374 1.173.957 1.185h.029c.457 0 .856-.168.998-.328l.077-.086.686 2.39-.029.025c-.386.334-1.143.732-2.566.732v.003zM148.351 15.865c-3.693 0-6.275-2.51-6.275-6.103s2.615-6.08 6.082-6.08h.065c3.487.035 5.824 2.583 5.824 6.367v.777h-8.629c.264 1.484 1.543 2.44 3.272 2.44.933 0 2.276-.38 3.036-1.099l.054-.05 1.446 2.104-.042.039c-1.114 1.006-2.92 1.608-4.833 1.608v-.003zm2.625-7.262c-.129-1.137-.931-2.322-2.818-2.322s-2.624 1.236-2.769 2.322h5.587zM155.656 15.865V3.952h3.277v1.14c.841-.91 2.038-1.41 3.394-1.41.119 0 .238.003.36.012h.062v3.138l-.081-.02c-.219-.05-.489-.073-.853-.073-1.156 0-2.18.52-2.885 1.466v7.66h-3.278.004zM178.059 15.865V3.95h3.12v1.137c.798-.907 1.935-1.404 3.222-1.404.113 0 .229.003.345.012h.061v3.138l-.08-.02a3.457 3.457 0 00-.809-.073c-1.097 0-2.07.52-2.736 1.466v7.66h-3.123zM164.906 19.998V3.97h3.081v1.137c.785-.937 1.864-1.43 3.129-1.43.091 0 .181 0 .271.006 3.01.166 4.801 2.443 4.791 6.097-.01 3.847-1.665 5.962-4.791 6.118a6.26 6.26 0 01-.245.007c-1.143 0-2.312-.389-3.158-1.042v5.135h-3.082.004zm5.56-13.703c-.924 0-1.919.685-2.421 1.363a.27.27 0 00-.048.153v3.845c0 .054.025.105.048.146.451.848 1.529 1.462 2.566 1.462.863 0 1.536-.245 1.999-.73.602-.627.87-1.665.796-3.082-.103-1.921-1.259-3.163-2.94-3.163v.006zM190.075 4.39h-3.2v11.552h3.2V4.39zM197.168 15.867c-2.083 0-4.079-.672-5.338-1.8l-.039-.035 1.42-2.3.058.055c.834.764 2.534 1.576 4.05 1.576 1.221 0 1.922-.42 1.922-1.15 0-.681-1.03-.885-2.334-1.137-2.083-.408-4.678-.91-4.678-3.71 0-2.167 2.022-3.68 4.92-3.68 2.26 0 3.857.86 4.797 1.584l.045.035-1.323 2.261-.058-.06c-.651-.653-1.974-1.313-3.458-1.313-1.037 0-1.765.414-1.797 1.013v.042c0 .582.969.77 2.19 1.01 2.047.397 4.849.945 4.849 3.889 0 2.264-2.048 3.726-5.216 3.726l-.01-.006zM209.818 15.865c-3.693 0-6.275-2.51-6.275-6.103s2.614-6.08 6.082-6.08 5.889 2.557 5.889 6.364v.78h-8.629c.264 1.484 1.542 2.44 3.271 2.44.934 0 2.277-.38 3.037-1.099l.054-.05 1.446 2.104-.042.039c-1.114 1.006-2.92 1.608-4.833 1.608v-.003zm2.624-7.262c-.128-1.137-.93-2.322-2.817-2.322s-2.624 1.236-2.769 2.322h5.586z" fill="#fff"></path><path d="M118.209 9.554V6.758h-7.933v2.796h7.933zM.003 13.619l1.784-2.561a6.682 6.682 0 002.199 1.548c.834.36 1.732.55 2.643.55 1.807 0 2.65-.805 2.65-1.703 0-2.676-8.77-.81-8.77-6.606C.509 2.282 2.7.16 6.29.16c2.422 0 4.43.736 5.938 2.147l-1.807 2.446C9.19 3.601 7.547 3.07 5.992 3.07c-1.372 0-2.148.602-2.148 1.526 0 2.93 8.748 1.083 8.745 6.533 0 2.816-2.012 4.937-6.098 4.937-2.953 0-5.052-.99-6.491-2.443h.003v-.003zM24.972 15.787v-6.48H17.78v6.48h-3.242V.396h3.242V6.44h7.193V.396h3.265v15.39h-3.265zM47.918 15.79V.405h7.125c3.313 0 5.116 2.262 5.116 4.956 0 2.695-1.825 4.938-5.116 4.938h-3.88v5.494h-3.245v-.003zM56.849 5.36c0-1.293-.981-2.076-2.26-2.076h-3.425v4.13h3.428c1.279.007 2.258-.773 2.258-2.044v-.01zM62.043 15.8V.404h1.323V14.6h7.377v1.197h-8.7v.003zM72.272 15.796V.406h1.3v15.39h-1.3zM87.115 15.8L77.523 2.57v13.225h-1.3V.406h1.326l9.547 13.04V.415H88.4v15.388l-1.279-.007-.006.003zM91.041 15.8V.415h9.662v1.198h-8.358V7.31h8.197v1.198h-8.197v6.1h8.358v1.197l-9.662-.01v.004zM37.27 5.6a.888.888 0 00-.821.538.88.88 0 00-.052.507c.035.17.119.325.241.45a.85.85 0 00.454.238c.17.032.351.016.512-.047a.87.87 0 00.283-1.427.879.879 0 00-.624-.258h.006z" fill="#fff"></path><path d="M38.081.413c-1.52 0-3.004.446-4.269 1.28a7.614 7.614 0 00-2.83 3.412 7.51 7.51 0 00-.438 4.39 7.55 7.55 0 002.103 3.889 7.7 7.7 0 003.934 2.076 7.743 7.743 0 004.437-.433 7.66 7.66 0 003.448-2.8 7.537 7.537 0 001.295-4.22 7.546 7.546 0 00-2.251-5.37A7.727 7.727 0 0038.078.41l.003.003zm-1.5 14.203l-1.127-4.255 3.606 4.348a6.92 6.92 0 01-2.482-.096h.006l-.003.003zm-1.285-4.88l6.672 3.848a6.89 6.89 0 01-2.586 1.077L35.3 9.736h-.004zm6.92 3.673l-7.02-4.055-1.09-4.15a.48.48 0 01.34-.586L38.6 3.465l6.201 3.22a6.706 6.706 0 01-.312 3.73 6.794 6.794 0 01-2.267 2.994h-.006z" fill="#fff"></path></svg>