<svg width="23" height="22" fill="none" xmlns="http://www.w3.org/2000/svg"><g clip-path="url(#linkiee_svg__clip0_5963_2599)"><path d="M22.5 11a7.586 7.586 0 11-15.173 0A7.586 7.586 0 0122.5 11z" fill="#0260FF"></path><path d="M18.328 12.138c-.629 0-1.138-.51-1.138-1.137a2.276 2.276 0 10-4.552 0 1.138 1.138 0 01-2.276 0 4.552 4.552 0 119.104 0c0 .628-.51 1.137-1.138 1.137z" fill="#fff"></path><path d="M15.673 11A7.586 7.586 0 11.5 11a7.586 7.586 0 0115.173 0z" fill="#00C2FF"></path><path opacity="0.5" d="M15.337 8.764a2.276 2.276 0 00-2.7 2.237 1.138 1.138 0 01-2.275 0 4.553 4.553 0 013.835-4.497 7.563 7.563 0 011.14 2.26z" fill="#fff"></path><path d="M4.673 9.862c.628 0 1.138.51 1.138 1.138a2.276 2.276 0 104.552 0 1.138 1.138 0 012.275 0 4.552 4.552 0 11-9.103 0c0-.628.51-1.138 1.138-1.138z" fill="#fff"></path></g><defs><clipPath id="linkiee_svg__clip0_5963_2599"><path fill="#fff" transform="translate(.5)" d="M0 0h22v22H0z"></path></clipPath></defs></svg>