<svg width="300" height="188" fill="none" xmlns="http://www.w3.org/2000/svg"><path d="M261 87.212c0-32.556-24.874-53.397-38.869-59.048-27.492-11.1-54.503-5.617-73.001 14.1-34.194 36.45-94.412 7.617-107.607 44.948C27.074 128.09 71.5 165.5 149.13 165.5c75.03 0 111.87-38.595 111.87-78.288z" fill="#E8F2FF"></path><g filter="url(#set-design-page-finish_svg__filter0_d_14428_148785)"><path d="M228 28H72a2 2 0 00-2 2v128a2 2 0 002 2h156a2 2 0 002-2V30a2 2 0 00-2-2z" fill="#fff"></path></g><path d="M70 30a2 2 0 012-2h156a2 2 0 012 2v38H70V30z" fill="url(#set-design-page-finish_svg__paint0_linear_14428_148785)"></path><path d="M78 38a2 2 0 100-4 2 2 0 000 4zM85 38a2 2 0 100-4 2 2 0 000 4zM92 38a2 2 0 100-4 2 2 0 000 4z" fill="#4D5677"></path><path d="M212.672 48H86.328c-.734 0-1.328.594-1.328 1.328v4.344c0 .734.594 1.328 1.328 1.328h126.344c.734 0 1.328-.594 1.328-1.328v-4.344c0-.734-.594-1.328-1.328-1.328z" fill="#000" fill-opacity="0.08"></path><g filter="url(#set-design-page-finish_svg__filter1_d_14428_148785)"><rect x="85" y="62" width="129" height="37" rx="1.328" fill="#fff"></rect></g><rect x="137" y="83" width="67" height="3" rx="1.328" fill="#EEF1F7"></rect><rect x="137" y="75" width="67" height="3" rx="1.328" fill="#EEF1F7"></rect><g filter="url(#set-design-page-finish_svg__filter2_d_14428_148785)"><rect x="85" y="106" width="59" height="38" rx="1.328" fill="#fff"></rect></g><path d="M106.57 75.545a.656.656 0 01.65-.567h13.481c.328 0 .606.242.651.567l1.466 10.634a.656.656 0 01-.65.747h-16.415a.657.657 0 01-.65-.747l1.467-10.634z" fill="#C8D6F2"></path><mask id="set-design-page-finish_svg__a" maskUnits="userSpaceOnUse" x="105" y="74" width="18" height="13" style="mask-type: alpha;"><path d="M106.57 75.545a.656.656 0 01.65-.567h13.481c.328 0 .606.242.651.567l1.466 10.634a.656.656 0 01-.65.747h-16.415a.657.657 0 01-.65-.747l1.467-10.634z" fill="#C8D6F2"></path></mask><g mask="url(#set-design-page-finish_svg__a)"><circle cx="113.712" cy="72.134" r="10.671" fill="url(#set-design-page-finish_svg__paint1_linear_14428_148785)"></circle></g><circle cx="110.757" cy="76.731" r="1.478" fill="#A8B6DA"></circle><circle cx="116.667" cy="76.731" r="1.478" fill="#A8B6DA"></circle><circle cx="110.757" cy="76.731" r="0.985" fill="#7C8AAA"></circle><circle cx="116.667" cy="76.731" r="0.985" fill="#7C8AAA"></circle><path opacity="0.3" d="M109.48 74.978h2.49l-.178 1.992h-2.134l-.178-1.992z" fill="url(#set-design-page-finish_svg__paint2_linear_14428_148785)" fill-opacity="0.7"></path><path opacity="0.3" d="M115.454 74.978h2.489l-.178 1.992h-2.133l-.178-1.992z" fill="url(#set-design-page-finish_svg__paint3_linear_14428_148785)" fill-opacity="0.7"></path><path d="M106.57 75.545a.656.656 0 01.65-.567h13.481c.328 0 .606.242.651.567l1.466 10.635a.656.656 0 01-.65.746h-16.415a.657.657 0 01-.65-.746l1.467-10.635z" fill="#000" fill-opacity="0.08"></path><path d="M116.667 76.567v-2.955a2.955 2.955 0 00-2.955-2.955v0a2.955 2.955 0 00-2.955 2.955v2.955" stroke="url(#set-design-page-finish_svg__paint4_linear_14428_148785)" stroke-width="1.409" stroke-linecap="round" stroke-linejoin="round"></path><path d="M103 127.757c0-.956 1.933-2.565 4.623-2.686l1.031-.991.028-3.413c.136-.738 1.115-2.667 2.681-2.667.725 0 2.223.498 2.903.498.679 0 2.178-.498 2.903-.498 1.553 0 2.534 1.943 2.655 2.711l.007 3.393 1.038.946c2.695.504 4.629 1.738 4.629 2.707 0 1.586-5.037 3.836-11.249 3.836-6.214 0-11.249-2.25-11.249-3.836z" fill="#B8C5DF"></path><mask id="set-design-page-finish_svg__b" maskUnits="userSpaceOnUse" x="103" y="118" width="23" height="14" style="mask-type: alpha;"><path d="M103 127.757c0-.956 1.933-2.565 4.623-2.686l1.031-.991.028-3.413c.136-.738 1.115-2.667 2.681-2.667.725 0 2.223.498 2.903.498.679 0 2.178-.498 2.903-.498 1.553 0 2.534 1.943 2.655 2.711l.007 3.393 1.038.946c2.695.504 4.629 1.738 4.629 2.707 0 1.586-5.037 3.836-11.249 3.836-6.214 0-11.249-2.25-11.249-3.836z" fill="#B8C5DF"></path></mask><g mask="url(#set-design-page-finish_svg__b)"><path d="M114.286 114.121c1.37 17.138-1.599 19.136-3.426 20.946H99.897v-20.946h14.389z" fill="url(#set-design-page-finish_svg__paint5_linear_14428_148785)"></path><path d="M107.654 124.206c1.319.776 2.811 1.94 6.594 1.94 3.784 0 5.276-1.009 6.595-1.94" stroke="url(#set-design-page-finish_svg__paint6_linear_14428_148785)" stroke-width="1.552" stroke-linejoin="round"></path></g><circle cx="230" cy="147" r="20" fill="#356DFF"></circle><path fill-rule="evenodd" clip-rule="evenodd" d="M240.104 142.329a.301.301 0 010 .425l-11.085 11.084a1.645 1.645 0 01-2.327 0l-6.194-6.193a.3.3 0 010-.424l1.903-1.903a.3.3 0 01.425 0l5.029 5.029 9.921-9.921a.301.301 0 01.425 0l1.903 1.903z" fill="#fff"></path><defs><linearGradient id="set-design-page-finish_svg__paint0_linear_14428_148785" x1="70" y1="48" x2="230" y2="48" gradientUnits="userSpaceOnUse"><stop stop-color="#59647C"></stop><stop offset="1" stop-color="#7A8499"></stop></linearGradient><linearGradient id="set-design-page-finish_svg__paint1_linear_14428_148785" x1="114.293" y1="83.275" x2="113.629" y2="73.65" gradientUnits="userSpaceOnUse"><stop stop-opacity="0.08"></stop><stop offset="1" stop-color="#fff" stop-opacity="0"></stop></linearGradient><linearGradient id="set-design-page-finish_svg__paint2_linear_14428_148785" x1="110.725" y1="74.978" x2="110.725" y2="76.97" gradientUnits="userSpaceOnUse"><stop stop-color="#1E2A48"></stop><stop offset="1" stop-color="#292D38" stop-opacity="0"></stop></linearGradient><linearGradient id="set-design-page-finish_svg__paint3_linear_14428_148785" x1="116.699" y1="74.978" x2="116.699" y2="76.97" gradientUnits="userSpaceOnUse"><stop stop-color="#1E2A48"></stop><stop offset="1" stop-color="#292D38" stop-opacity="0"></stop></linearGradient><linearGradient id="set-design-page-finish_svg__paint4_linear_14428_148785" x1="113.712" y1="70.657" x2="113.712" y2="76.567" gradientUnits="userSpaceOnUse"><stop stop-color="#AEB8CE"></stop><stop offset="1" stop-color="#697591"></stop></linearGradient><linearGradient id="set-design-page-finish_svg__paint5_linear_14428_148785" x1="102.072" y1="131.23" x2="116.871" y2="126.72" gradientUnits="userSpaceOnUse"><stop stop-color="#fff" stop-opacity="0"></stop><stop offset="1" stop-opacity="0.08"></stop></linearGradient><linearGradient id="set-design-page-finish_svg__paint6_linear_14428_148785" x1="106.335" y1="124.206" x2="121.284" y2="124.622" gradientUnits="userSpaceOnUse"><stop stop-color="#AEB8CE"></stop><stop offset="1" stop-color="#697591"></stop></linearGradient><filter id="set-design-page-finish_svg__filter0_d_14428_148785" x="60" y="22" width="180" height="152" filterUnits="userSpaceOnUse" color-interpolation-filters="sRGB"><feFlood flood-opacity="0" result="BackgroundImageFix"></feFlood><feColorMatrix in="SourceAlpha" values="0 0 0 0 0 0 0 0 0 0 0 0 0 0 0 0 0 0 127 0" result="hardAlpha"></feColorMatrix><feOffset dy="4"></feOffset><feGaussianBlur stdDeviation="5"></feGaussianBlur><feColorMatrix values="0 0 0 0 0.843137 0 0 0 0 0.858824 0 0 0 0 0.905882 0 0 0 0.2 0"></feColorMatrix><feBlend in2="BackgroundImageFix" result="effect1_dropShadow_14428_148785"></feBlend><feBlend in="SourceGraphic" in2="effect1_dropShadow_14428_148785" result="shape"></feBlend></filter><filter id="set-design-page-finish_svg__filter1_d_14428_148785" x="65" y="52" width="169" height="77" filterUnits="userSpaceOnUse" color-interpolation-filters="sRGB"><feFlood flood-opacity="0" result="BackgroundImageFix"></feFlood><feColorMatrix in="SourceAlpha" values="0 0 0 0 0 0 0 0 0 0 0 0 0 0 0 0 0 0 127 0" result="hardAlpha"></feColorMatrix><feOffset dy="10"></feOffset><feGaussianBlur stdDeviation="10"></feGaussianBlur><feColorMatrix values="0 0 0 0 0 0 0 0 0 0 0 0 0 0 0 0 0 0 0.03 0"></feColorMatrix><feBlend in2="BackgroundImageFix" result="effect1_dropShadow_14428_148785"></feBlend><feBlend in="SourceGraphic" in2="effect1_dropShadow_14428_148785" result="shape"></feBlend></filter><filter id="set-design-page-finish_svg__filter2_d_14428_148785" x="65" y="96" width="99" height="78" filterUnits="userSpaceOnUse" color-interpolation-filters="sRGB"><feFlood flood-opacity="0" result="BackgroundImageFix"></feFlood><feColorMatrix in="SourceAlpha" values="0 0 0 0 0 0 0 0 0 0 0 0 0 0 0 0 0 0 127 0" result="hardAlpha"></feColorMatrix><feOffset dy="10"></feOffset><feGaussianBlur stdDeviation="10"></feGaussianBlur><feColorMatrix values="0 0 0 0 0 0 0 0 0 0 0 0 0 0 0 0 0 0 0.03 0"></feColorMatrix><feBlend in2="BackgroundImageFix" result="effect1_dropShadow_14428_148785"></feBlend><feBlend in="SourceGraphic" in2="effect1_dropShadow_14428_148785" result="shape"></feBlend></filter></defs></svg>