<svg width="1em" height="1em" viewBox="0 0 20 20" fill="none" xmlns="http://www.w3.org/2000/svg" class="sl-wifi-icon-svg-color" style="width: 20px; height: 20px; color: rgb(71, 79, 94);"><path d="M16.38 10.307a.197.197 0 0 0-.033-.292A10.95 10.95 0 0 0 10 8a10.95 10.95 0 0 0-6.348 2.015.197.197 0 0 0-.032.292l.904 1.017a.203.203 0 0 0 .266.031A9.207 9.207 0 0 1 10 9.75c1.932 0 3.726.592 5.21 1.605a.203.203 0 0 0 .266-.031l.903-1.017ZM13.02 14.087a.194.194 0 0 0-.045-.299A5.972 5.972 0 0 0 10 13a5.973 5.973 0 0 0-2.975.788.194.194 0 0 0-.046.299l2.871 3.23a.2.2 0 0 0 .3 0l2.87-3.23Z" fill="#242833"></path><path d="M19.715 6.554a.198.198 0 0 0-.027-.289A15.93 15.93 0 0 0 10 3 15.93 15.93 0 0 0 .312 6.265a.198.198 0 0 0-.027.29l.9 1.012c.07.078.188.09.272.026A14.187 14.187 0 0 1 10 4.75c3.205 0 6.162 1.058 8.543 2.843a.202.202 0 0 0 .272-.026l.9-1.013Z" fill="#B8BECC"></path></svg>