<svg width="30" height="30" fill="none" xmlns="http://www.w3.org/2000/svg"><path d="M2.5 7.784c0-.531.43-.962.962-.962h23.076c.532 0 .962.43.962.962v14.423a3.846 3.846 0 01-3.846 3.846H3.462a.962.962 0 01-.962-.962V7.785z" fill="url(#amount_svg__paint0_linear_5702_13349)"></path><path fill-rule="evenodd" clip-rule="evenodd" d="M8.521 4.9h16.437l-.556-2.119a1.413 1.413 0 00-1.657-1.013L8.521 4.9zm3.86 9.614h-2.192c.235.238.584.354.927.279l1.264-.278z" fill="url(#amount_svg__paint1_linear_5702_13349)"></path><g filter="url(#amount_svg__filter0_d_5702_13349)"><path d="M16.594 18.936c0-.387-.12-.693-.358-.92-.234-.231-.634-.443-1.2-.637a15.654 15.654 0 01-1.466-.573 4.977 4.977 0 01-1.06-.658 2.775 2.775 0 01-.685-.878c-.161-.335-.242-.734-.242-1.196 0-.797.28-1.451.842-1.96.56-.51 1.306-.807 2.236-.892V9.707h1.247v1.536c.92.118 1.64.467 2.16 1.047.519.576.779 1.324.779 2.244h-2.253c0-.566-.13-.989-.39-1.267-.254-.283-.597-.425-1.028-.425-.426 0-.756.111-.99.333-.234.217-.35.52-.35.906 0 .359.114.646.342.863.229.217.652.44 1.27.666a14.16 14.16 0 011.536.644c.4.198.738.424 1.013.68.276.25.486.537.631.863.146.32.219.696.219 1.125 0 .802-.276 1.453-.827 1.953-.55.5-1.309.796-2.275.885v1.409h-1.24v-1.402c-1.065-.104-1.89-.446-2.478-1.026-.582-.585-.873-1.361-.873-2.329h2.253c0 .562.145.994.436 1.296.296.297.72.446 1.27.446.458 0 .819-.109 1.084-.326.265-.222.397-.52.397-.892z" fill="#fff" fill-opacity="0.95"></path></g><defs><linearGradient id="amount_svg__paint0_linear_5702_13349" x1="15" y1="6.822" x2="15" y2="26.053" gradientUnits="userSpaceOnUse"><stop stop-color="#236EFF"></stop><stop offset="1" stop-color="#236EFF" stop-opacity="0.6"></stop></linearGradient><linearGradient id="amount_svg__paint1_linear_5702_13349" x1="12.341" y1="4.711" x2="14.163" y2="9.111" gradientUnits="userSpaceOnUse"><stop stop-color="#5A92FF"></stop><stop offset="1" stop-color="#236EFF" stop-opacity="0.6"></stop></linearGradient><filter id="amount_svg__filter0_d_5702_13349" x="9.231" y="8.265" width="11.538" height="17.307" filterUnits="userSpaceOnUse" color-interpolation-filters="sRGB"><feFlood flood-opacity="0" result="BackgroundImageFix"></feFlood><feColorMatrix in="SourceAlpha" values="0 0 0 0 0 0 0 0 0 0 0 0 0 0 0 0 0 0 127 0" result="hardAlpha"></feColorMatrix><feOffset dy="0.481"></feOffset><feGaussianBlur stdDeviation="0.962"></feGaussianBlur><feColorMatrix values="0 0 0 0 1 0 0 0 0 1 0 0 0 0 1 0 0 0 0.3 0"></feColorMatrix><feBlend in2="BackgroundImageFix" result="effect1_dropShadow_5702_13349"></feBlend><feBlend in="SourceGraphic" in2="effect1_dropShadow_5702_13349" result="shape"></feBlend></filter></defs></svg>