<svg width="40" height="40" viewBox="0 0 40 40" fill="none" xmlns="http://www.w3.org/2000/svg"><path d="M0 4C0 1.79086 1.79086 0 4 0H36C38.2091 0 40 1.79086 40 4V36C40 38.2091 38.2091 40 36 40H4C1.79086 40 0 38.2091 0 36V4Z" fill="#F5F8FC"></path><path d="M28.3201 28.476L29.3018 28.2858L28.3201 28.476C28.4628 29.2126 28.2384 30.1104 27.4776 30.6467C26.8492 31.0897 26.1796 31.4785 25.4756 31.8062C24.6308 32.1995 23.7411 31.945 23.1751 31.4528C22.324 30.7126 21.2157 30.266 20.0001 30.266C18.7844 30.266 17.6761 30.7126 16.825 31.4528C16.259 31.9451 15.3694 32.1995 14.5245 31.8063C13.8204 31.4785 13.1506 31.0896 12.5222 30.6465C11.7614 30.1102 11.537 29.2125 11.6797 28.4759C11.8941 27.3688 11.7263 26.1858 11.119 25.1329C10.5118 24.0801 9.57222 23.3429 8.50678 22.975C7.79797 22.7302 7.13241 22.0853 7.05057 21.1549C7.01707 20.7741 7 20.3889 7 20C7 19.6107 7.01711 19.2251 7.05067 18.844C7.13259 17.9136 7.79809 17.2688 8.50683 17.0241C9.57225 16.6561 10.5118 15.9189 11.119 14.8661C11.7262 13.8134 11.8941 12.6307 11.6798 11.5237C11.5372 10.7872 11.7617 9.8896 12.5224 9.35332C13.1508 8.91029 13.8204 8.52144 14.5245 8.1937C15.3694 7.80046 16.259 8.05492 16.825 8.5472C17.6761 9.28742 18.7844 9.73396 20.0001 9.73396C21.2157 9.73396 22.324 9.28743 23.1751 8.54723C23.7411 8.05495 24.6307 7.8005 25.4756 8.19376C26.1796 8.52145 26.8491 8.91021 27.4774 9.35314C28.2381 9.88944 28.4626 10.7871 28.32 11.5236C28.1057 12.6306 28.2736 13.8134 28.8808 14.8661C29.488 15.9189 30.4276 16.6562 31.4931 17.0241C32.2019 17.2689 32.8674 17.9137 32.9493 18.8441C32.9829 19.2252 33 19.6108 33 20C33 20.3888 32.9829 20.774 32.9494 21.1548C32.8676 22.0853 32.202 22.7301 31.4932 22.9749C30.4276 23.3428 29.488 24.0801 28.8808 25.1329C28.2735 26.1859 28.1056 27.3688 28.3201 28.476Z" stroke="#474F5E" stroke-width="2"></path><path d="M16.0729 19.9725C16.0729 17.8036 17.8311 16.0454 20 16.0454C22.1689 16.0454 23.9271 17.8036 23.9271 19.9725C23.9271 22.1414 22.1689 23.8996 20 23.8996C17.8311 23.8996 16.0729 22.1414 16.0729 19.9725Z" stroke="#356DFF" stroke-width="1.8125"></path></svg>