<svg width="300" height="188" fill="none" xmlns="http://www.w3.org/2000/svg"><path d="M261 87.212c0-32.556-24.874-53.397-38.869-59.048-27.492-11.1-54.503-5.617-73.001 14.1-34.194 36.45-94.412 7.617-107.607 44.948C27.074 128.09 71.5 165.5 149.13 165.5c75.03 0 111.87-38.595 111.87-78.288z" fill="#E8F2FF"></path><g filter="url(#set-design-nav_svg__filter0_d_14117_146177)"><rect x="70" y="28" width="160" height="132" rx="2" fill="#fff"></rect></g><rect x="82" y="122.576" width="96" height="7" rx="2" fill="#EEF1F7"></rect><rect x="82" y="134.576" width="44" height="7" rx="2" fill="#EEF1F7"></rect><rect x="82" y="73.788" width="136" height="43" rx="2" fill="#EEF1F7"></rect><path d="M140 109.788l18-28 18 28h-36z" fill="#909BB3"></path><path d="M126 109.788l13-20 13 20h-26z" fill="#B8C5DF"></path><circle cx="129" cy="84.788" r="5" fill="#B8C5DF"></circle><path d="M70 30a2 2 0 012-2h156a2 2 0 012 2v14H70V30z" fill="url(#set-design-nav_svg__paint0_linear_14117_146177)"></path><circle cx="78" cy="36" r="2" fill="#4D5677"></circle><circle cx="85" cy="36" r="2" fill="#4D5677"></circle><circle cx="92" cy="36" r="2" fill="#4D5677"></circle><circle cx="230" cy="147" r="20" fill="#356DFF"></circle><g clip-path="url(#set-design-nav_svg__clip0_14117_146177)"><path d="M230.9 141.858l4.242 4.243-9.9 9.899H221v-4.243l9.9-9.9v.001zm1.414-1.414l2.121-2.122a1 1 0 011.414 0l2.829 2.829a1.002 1.002 0 010 1.414l-2.122 2.121-4.242-4.242z" fill="#FCFEFE"></path></g><rect x="82" y="52" width="34" height="7" rx="2" fill="#356DFF"></rect><rect x="130" y="52" width="28" height="7" rx="2" fill="#EEF1F7"></rect><rect x="172" y="52" width="28" height="7" rx="2" fill="#EEF1F7"></rect><path d="M214 54a2 2 0 012-2h14v7h-14a2 2 0 01-2-2v-3zM70 64.788h160v1H70z" fill="#EEF1F7"></path><defs><linearGradient id="set-design-nav_svg__paint0_linear_14117_146177" x1="70" y1="36" x2="230" y2="36" gradientUnits="userSpaceOnUse"><stop stop-color="#59647C"></stop><stop offset="1" stop-color="#7A8499"></stop></linearGradient><clipPath id="set-design-nav_svg__clip0_14117_146177"><path fill="#fff" transform="translate(218 135)" d="M0 0h24v24H0z"></path></clipPath><filter id="set-design-nav_svg__filter0_d_14117_146177" x="60" y="22" width="180" height="152" filterUnits="userSpaceOnUse" color-interpolation-filters="sRGB"><feFlood flood-opacity="0" result="BackgroundImageFix"></feFlood><feColorMatrix in="SourceAlpha" values="0 0 0 0 0 0 0 0 0 0 0 0 0 0 0 0 0 0 127 0" result="hardAlpha"></feColorMatrix><feOffset dy="4"></feOffset><feGaussianBlur stdDeviation="5"></feGaussianBlur><feColorMatrix values="0 0 0 0 0.843137 0 0 0 0 0.858824 0 0 0 0 0.905882 0 0 0 0.2 0"></feColorMatrix><feBlend in2="BackgroundImageFix" result="effect1_dropShadow_14117_146177"></feBlend><feBlend in="SourceGraphic" in2="effect1_dropShadow_14117_146177" result="shape"></feBlend></filter></defs></svg>