<svg width="31" height="30" fill="none" xmlns="http://www.w3.org/2000/svg"><circle cx="15.667" cy="10.001" r="6.667" fill="url(#user_svg__paint0_linear_5702_13375)"></circle><path d="M5.666 23.334a5 5 0 015-5h10a5 5 0 015 5v4.167c0 .46-.373.833-.833.833H6.499a.833.833 0 01-.833-.833v-4.167z" fill="url(#user_svg__paint1_linear_5702_13375)"></path><g filter="url(#user_svg__filter0_d_5702_13375)"><path d="M15.315 23.117a.667.667 0 00.701 0l2.707-1.674c.57-.354.32-1.234-.35-1.234h-5.415c-.67 0-.921.88-.35 1.234l2.707 1.674z" fill="#fff" fill-opacity="0.95"></path></g><defs><linearGradient id="user_svg__paint0_linear_5702_13375" x1="15.667" y1="3.334" x2="15.667" y2="16.667" gradientUnits="userSpaceOnUse"><stop stop-color="#236EFF"></stop><stop offset="1" stop-color="#236EFF" stop-opacity="0.6"></stop></linearGradient><linearGradient id="user_svg__paint1_linear_5702_13375" x1="15.666" y1="18.334" x2="15.666" y2="28.334" gradientUnits="userSpaceOnUse"><stop stop-color="#236EFF"></stop><stop offset="1" stop-color="#236EFF" stop-opacity="0.6"></stop></linearGradient><filter id="user_svg__filter0_d_5702_13375" x="10.624" y="18.959" width="10.083" height="6.341" filterUnits="userSpaceOnUse" color-interpolation-filters="sRGB"><feFlood flood-opacity="0" result="BackgroundImageFix"></feFlood><feColorMatrix in="SourceAlpha" values="0 0 0 0 0 0 0 0 0 0 0 0 0 0 0 0 0 0 127 0" result="hardAlpha"></feColorMatrix><feOffset dy="0.417"></feOffset><feGaussianBlur stdDeviation="0.833"></feGaussianBlur><feColorMatrix values="0 0 0 0 1 0 0 0 0 1 0 0 0 0 1 0 0 0 0.3 0"></feColorMatrix><feBlend in2="BackgroundImageFix" result="effect1_dropShadow_5702_13375"></feBlend><feBlend in="SourceGraphic" in2="effect1_dropShadow_5702_13375" result="shape"></feBlend></filter></defs></svg>