<svg width="40" height="40" viewBox="0 0 40 40" fill="none" xmlns="http://www.w3.org/2000/svg"><path d="M0 4C0 1.79086 1.79086 0 4 0H36C38.2091 0 40 1.79086 40 4V36C40 38.2091 38.2091 40 36 40H4C1.79086 40 0 38.2091 0 36V4Z" fill="#F5F8FC"></path><circle cx="20" cy="14" r="6" stroke="#474F5E" stroke-width="2"></circle><path d="M31 31V31C31 26.5817 27.4183 23 23 23H17C12.5817 23 9 26.5817 9 31V31" stroke="#474F5E" stroke-width="2" stroke-linecap="round"></path><path d="M22 29.9999C22 31.1045 20 31.9999 20 31.9999C20 31.9999 18 31.1045 18 29.9999C18 28.8954 20 25 20 25C20 25 22 28.8954 22 29.9999Z" fill="#356DFF"></path></svg>