<svg width="40" height="40" viewBox="0 0 40 40" fill="none" xmlns="http://www.w3.org/2000/svg"><path d="M0 4C0 1.79086 1.79086 0 4 0H36C38.2091 0 40 1.79086 40 4V36C40 38.2091 38.2091 40 36 40H4C1.79086 40 0 38.2091 0 36V4Z" fill="#F5F8FC"></path><path fill-rule="evenodd" clip-rule="evenodd" d="M20 19C22.7614 19 25 16.7614 25 14C25 11.2386 22.7614 9 20 9C17.2386 9 15 11.2386 15 14C15 16.7614 17.2386 19 20 19ZM20 21C23.866 21 27 17.866 27 14C27 10.134 23.866 7 20 7C16.134 7 13 10.134 13 14C13 17.866 16.134 21 20 21Z" fill="#474F5E"></path><path fill-rule="evenodd" clip-rule="evenodd" d="M26 25C24.3431 25 23 26.3431 23 28C23 29.6569 24.3431 31 26 31C27.6569 31 29 29.6569 29 28C29 26.3431 27.6569 25 26 25ZM21 28C21 25.2386 23.2386 23 26 23C28.7614 23 31 25.2386 31 28C31 30.7614 28.7614 33 26 33C23.2386 33 21 30.7614 21 28Z" fill="#356DFF"></path><path fill-rule="evenodd" clip-rule="evenodd" d="M33.7071 20.2929C34.0976 20.6834 34.0976 21.3166 33.7071 21.7071L29.7071 25.7071C29.3166 26.0976 28.6834 26.0976 28.2929 25.7071C27.9024 25.3166 27.9024 24.6834 28.2929 24.2929L32.2929 20.2929C32.6834 19.9024 33.3166 19.9024 33.7071 20.2929Z" fill="#356DFF"></path><path fill-rule="evenodd" clip-rule="evenodd" d="M31.2929 22.2929C31.6834 21.9024 32.3166 21.9024 32.7071 22.2929L34.2071 23.7929C34.5976 24.1834 34.5976 24.8166 34.2071 25.2071C33.8166 25.5976 33.1834 25.5976 32.7929 25.2071L31.2929 23.7071C30.9024 23.3166 30.9024 22.6834 31.2929 22.2929Z" fill="#356DFF"></path><path fill-rule="evenodd" clip-rule="evenodd" d="M17 24C13.134 24 10 27.134 10 31C10 31.5523 9.55228 32 9 32C8.44772 32 8 31.5523 8 31C8 26.0294 12.0294 22 17 22H20C20.5523 22 21 22.4477 21 23C21 23.5523 20.5523 24 20 24H17Z" fill="#474F5E"></path></svg>