<svg width="1em" height="1em" viewBox="0 0 40 40" fill="none" xmlns="http://www.w3.org/2000/svg" data-icon="SLIconSettingsBrand" style="font-size: 40px;"><rect width="40" height="40" rx="4" fill="#F5F8FC"></rect><path d="M23.207 23.256a1 1 0 0 1 .256 1.391c-.51.74-1.17 1.35-1.936 1.775a5.125 5.125 0 0 1-2.483.651c-.61 0-1.247-.074-1.875-.196a1 1 0 1 1 .384-1.964c.531.104 1.035.16 1.49.16.518 0 1.036-.135 1.515-.4.48-.267.913-.66 1.258-1.16a1 1 0 0 1 1.39-.257Z" fill="#356DFF"></path><path d="M10.884 19.164c1.242-4.637 5.612-7.448 10.266-6.555l4.994-3.884a2.086 2.086 0 0 1 2.753.171l3.253 3.252a2.086 2.086 0 0 1 .171 2.756l-3.883 4.993a9.15 9.15 0 0 1-8.983 10.844c-4.013 0-9.076-1.696-11.92-3.402a1 1 0 0 1-.087-1.656c2.05-1.546 2.714-2.691 2.982-3.56.141-.454.19-.883.23-1.365l.012-.148c.035-.428.077-.94.212-1.446Zm16.487-8.859-3.998 3.109c1.675.838 3.329 2.191 4.314 4.19l3.055-3.929a.085.085 0 0 0-.007-.113l-3.251-3.25a.085.085 0 0 0-.113-.007Zm-6.304 4.331c-3.708-.867-7.246 1.295-8.25 5.046-.087.32-.114.649-.152 1.106l-.012.139c-.043.504-.104 1.114-.311 1.787-.346 1.117-1.055 2.286-2.504 3.593 2.678 1.296 6.552 2.433 9.615 2.434a7.15 7.15 0 0 0 6.922-8.928c-.716-2.866-3.106-4.5-5.308-5.177Z" fill="#474F5E"></path></svg>