<svg width="40" height="41" viewBox="0 0 40 41" fill="none" xmlns="http://www.w3.org/2000/svg"><rect y="0.714966" width="40" height="40" rx="4" fill="#F5F8FC"></rect><path d="M30.4302 13.5739V15.7101H31.9998C33.1044 15.7101 33.9998 16.6055 33.9998 17.7101V29.6087C33.9998 29.7088 33.9851 29.8055 33.9577 29.8967C33.8185 30.7252 33.3436 31.3986 32.7427 31.8659C32.0352 32.4162 31.1199 32.715 30.2136 32.715H9.78503C9.75546 32.715 9.72618 32.7137 9.69726 32.7112C9.64259 32.7137 9.58761 32.715 9.53232 32.715C7.58141 32.715 5.99988 31.1334 5.99988 29.1825V10.715C5.99988 9.6104 6.89531 8.71497 7.99988 8.71497H18.5116C19.1279 8.71497 19.7097 8.99902 20.0887 9.48491L21.7181 11.5739L28.4302 11.5739C29.5348 11.5739 30.4302 12.4694 30.4302 13.5739ZM7.99988 10.715V29.1825C7.99988 30.0289 8.68598 30.715 9.53232 30.715C10.3786 30.715 11.0647 30.0289 11.0648 29.1826L11.0652 17.71C11.0653 16.6055 11.9607 15.7101 13.0652 15.7101H28.4302V13.5739H21.7181C21.1019 13.5739 20.5201 13.2899 20.1411 12.804L18.5116 10.715H7.99988ZM12.7159 30.715H30.2136C30.7002 30.715 31.1777 30.5495 31.5148 30.2872C31.8412 30.0334 31.9993 29.7257 31.9993 29.3936C31.9993 29.3829 31.9995 29.3723 31.9998 29.3618V17.7101H13.0652L13.0648 29.1827C13.0647 29.7317 12.9395 30.2515 12.7159 30.715Z" fill="#474F5E"></path><path d="M23 20.715C23 20.1627 23.4477 19.715 24 19.715H29C29.5523 19.715 30 20.1627 30 20.715C30 21.2673 29.5523 21.715 29 21.715H24C23.4477 21.715 23 21.2673 23 20.715Z" fill="#356DFF"></path></svg>