<svg width="40" height="40" viewBox="0 0 1024 1024" fill="none" xmlns="http://www.w3.org/2000/svg">
<path d="M0 102.4a102.4 102.4 0 0 1 102.4-102.4h819.2a102.4 102.4 0 0 1 102.4 102.4v819.2a102.4 102.4 0 0 1-102.4 102.4H102.4a102.4 102.4 0 0 1-102.4-102.4V102.4z" fill="#F5F8FC"></path><path d="M128 268.8a76.8 76.8 0 0 1 76.8-76.8h614.4a76.8 76.8 0 0 1 76.8 76.8v486.4a76.8 76.8 0 0 1-76.8 76.8H204.8a76.8 76.8 0 0 1-76.8-76.8v-486.4z m248.6528 62.1568V243.2H204.8a25.6 25.6 0 0 0-25.6 25.6v486.4a25.6 25.6 0 0 0 25.6 25.6h171.8528v-87.7824a25.6 25.6 0 1 1 51.2 0V780.8H819.2a25.6 25.6 0 0 0 25.6-25.6v-486.4a25.6 25.6 0 0 0-25.6-25.6H427.8528v87.7568a25.6 25.6 0 1 1-51.2 0z" fill="#474F5E"></path><path d="M405.6832 441.5232l28.5952-28.5696a90.24 90.24 0 0 1 127.616 0l0.5888 0.5888a89.4208 89.4208 0 0 1-97.4848 145.8176l44.0576 53.8624a25.6 25.6 0 0 1-39.6288 32.4352l-67.1744-82.1248-67.1744 82.1248a25.6 25.6 0 1 1-39.6288-32.4352l41.3952-50.6112a89.4208 89.4208 0 0 1-88.0128-149.1456l0.5632-0.5888a90.24 90.24 0 0 1 127.6416 0l28.6464 28.672z m-120.6528 62.208a38.2208 38.2208 0 0 0 54.016 0l28.2112-28.2112-26.4192-26.4192a38.9376 38.9376 0 0 0-55.2192 0l-0.5888 0.5888a38.2208 38.2208 0 0 0 0 54.016z m241.2544 0.0512a38.2208 38.2208 0 0 0 0-54.0416l-0.5888-0.5888a39.0656 39.0656 0 0 0-55.2192 0l-26.4192 26.4192 28.1856 28.2112a38.144 38.144 0 0 0 54.016 0z" fill="#356DFF"></path>
</svg>
