<svg width="40" height="40" viewBox="0 0 40 40" fill="none" xmlns="http://www.w3.org/2000/svg"><path d="M0 4C0 1.79086 1.79086 0 4 0H36C38.2091 0 40 1.79086 40 4V36C40 38.2091 38.2091 40 36 40H4C1.79086 40 0 38.2091 0 36V4Z" fill="#F5F8FC"></path><path d="M22.9992 28.3637L22.2277 27.7274L22.9992 28.3637ZM19.2285 31.0647L18.4571 31.7009L19.2285 31.0647ZM20.7715 31.0647L21.5429 31.7009L20.7715 31.0647ZM9 27V10H7V27H9ZM16.2294 27H9V29H16.2294V27ZM16.2294 29L18.4571 31.7009L20 30.4284L17.7723 27.7274L16.2294 29ZM21.5429 31.7009L23.7706 29L22.2277 27.7274L20 30.4284L21.5429 31.7009ZM31 27H23.7706V29H31V27ZM31 10V27H33V10H31ZM9 10H31V8H9V10ZM33 10C33 8.89543 32.1046 8 31 8V10H33ZM31 29C32.1046 29 33 28.1046 33 27H31V29ZM23.7706 29H23.7706V27C23.1735 27 22.6076 27.2668 22.2277 27.7274L23.7706 29ZM18.4571 31.7009C19.2571 32.6709 20.7429 32.6709 21.5429 31.7009L20 30.4284L18.4571 31.7009ZM16.2294 29L17.7723 27.7274C17.3924 27.2668 16.8265 27 16.2294 27V29ZM9 10V10V8C7.89543 8 7 8.89543 7 10H9ZM7 27C7 28.1046 7.89543 29 9 29V27H9H7Z" fill="#474F5E"></path><path d="M18.3857 18.9946H14.7295V21.4702H19.0205V23H12.8252V13.7578H19.0078V15.3003H14.7295V17.5029H18.3857V18.9946ZM27.6533 23H25.749L22.042 16.9189V23H20.1377V13.7578H22.042L25.7554 19.8516V13.7578H27.6533V23Z" fill="#356DFF"></path></svg>