<svg width="40" height="40" viewBox="0 0 40 40" fill="none" xmlns="http://www.w3.org/2000/svg"><rect width="40" height="40" rx="4" fill="#F5F8FC"></rect><path d="M23.9292 33.212C23.9741 33.3215 23.9147 33.4458 23.8009 33.4779C22.5923 33.818 21.3174 34 20 34C12.268 34 6 27.732 6 20C6 12.268 12.268 6 20 6C27.732 6 34 12.268 34 20C34 21.4084 33.792 22.7683 33.4051 24.0505C33.3714 24.1623 33.2484 24.2196 33.1403 24.1753L31.6513 23.5647C31.5559 23.5255 31.506 23.4202 31.5345 23.321C31.8376 22.2664 32 21.1522 32 20C32 18.7825 31.8187 17.6073 31.4816 16.5H25.8222C25.9386 17.6205 26 18.794 26 20C26 20.4026 25.9932 20.8016 25.9797 21.1962C25.9757 21.3125 25.8731 21.3998 25.757 21.3923C25.2337 21.3588 24.7257 21.4248 24.2503 21.5728C24.1115 21.6161 23.9659 21.5111 23.9719 21.3658C23.9904 20.918 24 20.4623 24 20C24 18.78 23.9335 17.6058 23.8108 16.5H16.1892C16.0665 17.6058 16 18.78 16 20C16 21.22 16.0665 22.3942 16.1892 23.5H21.5378C21.6547 23.5 21.7274 23.6282 21.6732 23.7316C21.4202 24.2145 21.2564 24.7482 21.2052 25.3092C21.1955 25.4158 21.1079 25.5 21.001 25.5H16.4849C16.7195 26.7525 17.0303 27.878 17.3978 28.8334C17.8244 29.9425 18.3078 30.7713 18.7936 31.3056C19.2792 31.8396 19.6883 32 20 32C20.3117 32 20.7208 31.8396 21.2064 31.3056C21.5698 30.9059 21.9319 30.3414 22.2698 29.618C22.3071 29.5382 22.4226 29.5399 22.4561 29.6214L23.9292 33.212ZM18.7936 8.69438C18.3078 9.22865 17.8244 10.0575 17.3978 11.1666C17.0303 12.122 16.7195 13.2475 16.4849 14.5H23.5151C23.2805 13.2475 22.9697 12.122 22.6022 11.1666C22.1756 10.0575 21.6922 9.22865 21.2064 8.69438C20.7208 8.16039 20.3117 8 20 8C19.6883 8 19.2792 8.16039 18.7936 8.69438ZM14.4528 14.5C14.7134 12.9939 15.0793 11.6233 15.5311 10.4486C15.7998 9.7501 16.105 9.10475 16.4468 8.53476C13.3534 9.49235 10.7951 11.6674 9.33182 14.5H14.4528ZM8.51844 16.5C8.18132 17.6073 8 18.7825 8 20C8 21.2175 8.18132 22.3927 8.51844 23.5H14.1778C14.0614 22.3795 14 21.206 14 20C14 18.794 14.0614 17.6205 14.1778 16.5H8.51844ZM9.33182 25.5C10.7951 28.3326 13.3534 30.5076 16.4468 31.4652C16.105 30.8952 15.7998 30.2499 15.5311 29.5514C15.0793 28.3767 14.7135 27.0061 14.4528 25.5H9.33182ZM30.6682 14.5C29.2049 11.6674 26.6466 9.49235 23.5532 8.53476C23.895 9.10475 24.2002 9.7501 24.4689 10.4486C24.9207 11.6233 25.2866 12.9939 25.5472 14.5H30.6682Z" fill="#474F5E"></path><path d="M29.2705 33.5712C29.0152 34.1443 28.1978 34.1322 27.9597 33.5518L24.8532 25.9798C24.613 25.3943 25.1977 24.8093 25.7832 25.0494L33.3554 28.1548C33.9358 28.3928 33.9481 29.2106 33.375 29.4659L30.7854 30.6196C30.6245 30.6912 30.4959 30.8199 30.4242 30.9808L29.2705 33.5712Z" fill="#356DFF"></path></svg>