<svg width="40" height="40" viewBox="0 0 40 40" fill="none" xmlns="http://www.w3.org/2000/svg"><rect width="40" height="40" rx="4" fill="#F5F8FC"></rect><path d="M12 10H10.0188C8.91421 10 8.01878 10.8954 8.01878 12V16.9231L5.06871 19.93C5.03055 19.9689 5.03055 20.0311 5.06871 20.07L8.01878 23.0769V27C8.01878 28.6569 9.36193 30 11.0188 30H12" stroke="#474F5E" stroke-width="2" stroke-linecap="round"></path><path d="M29 10H30.9812C32.0858 10 32.9812 10.8954 32.9812 12V16.9231L35.9313 19.93C35.9694 19.9689 35.9694 20.0311 35.9313 20.07L32.9812 23.0769V28C32.9812 29.1046 32.0858 30 30.9812 30H29" stroke="#474F5E" stroke-width="2" stroke-linecap="round"></path><path d="M18.1572 23.2336H14.8173L14.2819 25H12L15.238 15H17.762L21 25H18.6926L18.1572 23.2336ZM17.5963 21.3533L16.4873 17.6923L15.3909 21.3533H17.5963Z" fill="#474F5E"></path><path d="M21.5 20.9861C21.5 20.187 21.6449 19.4855 21.9346 18.8815C22.2334 18.2776 22.6364 17.813 23.1435 17.4878C23.6505 17.1626 24.2165 17 24.8413 17C25.3755 17 25.8418 17.1115 26.2402 17.3345C26.6477 17.5575 26.9601 17.8502 27.1774 18.2125V17.1115H29.5V24.8885H27.1774V23.7875C26.951 24.1498 26.6341 24.4425 26.2267 24.6655C25.8282 24.8885 25.3619 25 24.8277 25C24.2119 25 23.6505 24.8374 23.1435 24.5122C22.6364 24.1777 22.2334 23.7085 21.9346 23.1045C21.6449 22.4913 21.5 21.7851 21.5 20.9861ZM27.1774 21C27.1774 20.4053 27.0144 19.9361 26.6885 19.5923C26.3715 19.2485 25.9822 19.0767 25.5204 19.0767C25.0586 19.0767 24.6647 19.2485 24.3387 19.5923C24.0218 19.9268 23.8633 20.3914 23.8633 20.9861C23.8633 21.5807 24.0218 22.0546 24.3387 22.4077C24.6647 22.7515 25.0586 22.9233 25.5204 22.9233C25.9822 22.9233 26.3715 22.7515 26.6885 22.4077C27.0144 22.0639 27.1774 21.5947 27.1774 21Z" fill="#356DFF"></path></svg>