<svg width="40" height="40" viewBox="0 0 40 40" fill="none" xmlns="http://www.w3.org/2000/svg"><path d="M0 4C0 1.79086 1.79086 0 4 0H36C38.2091 0 40 1.79086 40 4V36C40 38.2091 38.2091 40 36 40H4C1.79086 40 0 38.2091 0 36V4Z" fill="#F5F8FC"></path><path d="M12 23L28 23" stroke="#356DFF" stroke-width="2" stroke-linecap="round"></path><path d="M12 17C12 12.5817 15.5817 9 20 9V9C24.4183 9 28 12.5817 28 17V23.1024C28 23.3839 28.0594 23.6622 28.1744 23.9192L29.3699 26.5916C29.6659 27.2532 29.1818 28 28.4571 28H11.5429C10.8182 28 10.3341 27.2532 10.6301 26.5916L11.8256 23.9192C11.9406 23.6622 12 23.3839 12 23.1024V17Z" stroke="#474F5E" stroke-width="2"></path><path d="M24 28C24 30.2091 22.2091 32 20 32C17.7909 32 16 30.2091 16 28" stroke="#474F5E" stroke-width="2" stroke-linejoin="round"></path><path d="M20 9V6" stroke="#474F5E" stroke-width="2" stroke-linecap="round"></path></svg>