<svg width="40" height="40" viewBox="0 0 40 40" fill="none" xmlns="http://www.w3.org/2000/svg"><path d="M0 4C0 1.79086 1.79086 0 4 0H36C38.2091 0 40 1.79086 40 4V36C40 38.2091 38.2091 40 36 40H4C1.79086 40 0 38.2091 0 36V4Z" fill="#F5F8FC"></path><path d="M13 6V11C13 11.5523 13.4477 12 14 12H16C16.5523 12 17 11.5523 17 11V6" stroke="#356DFF" stroke-width="2"></path><rect x="9" y="7" width="22" height="26" rx="1" stroke="#474F5E" stroke-width="2"></rect><rect x="14" y="17" width="12" height="2" rx="1" fill="#474F5E"></rect><rect x="14" y="21" width="7" height="2" rx="1" fill="#474F5E"></rect></svg>