<svg width="40" height="40" viewBox="0 0 1024 1024" fill="none" xmlns="http://www.w3.org/2000/svg">
<path d="M0 0m102.4 0l819.2 0q102.4 0 102.4 102.4l0 819.2q0 102.4-102.4 102.4l-819.2 0q-102.4 0-102.4-102.4l0-819.2q0-102.4 102.4-102.4Z" fill="#F5F8FC"></path><path d="M256 179.2v0h512a25.6 25.6 0 0 1 25.6 25.6v128a25.6 25.6 0 1 1-51.2 0V230.4H281.6v550.9888l220.9024-88.3456a25.6 25.6 0 0 1 18.9952 0L742.4 781.3888V640a25.6 25.6 0 1 1 51.2 0v179.2a25.6 25.6 0 0 1-35.0976 23.7568L512 744.3968l-246.5024 98.5856A25.6 25.6 0 0 1 230.4 819.2V204.8a25.6 25.6 0 0 1 25.6-25.6z" fill="#474F5E"></path><path d="M512 486.4a25.6 25.6 0 0 1 25.6-25.6h204.8a25.6 25.6 0 1 1 0 51.2h-204.8a25.6 25.6 0 0 1-25.6-25.6z" fill="#356DFF"></path><path d="M640 614.4a25.6 25.6 0 0 1-25.6-25.6v-204.8a25.6 25.6 0 1 1 51.2 0v204.8a25.6 25.6 0 0 1-25.6 25.6z" fill="#356DFF"></path>
</svg>


