<svg width="40" height="40" viewBox="0 0 40 40" fill="none" xmlns="http://www.w3.org/2000/svg"><path d="M0 4C0 1.79086 1.79086 0 4 0H36C38.2091 0 40 1.79086 40 4V36C40 38.2091 38.2091 40 36 40H4C1.79086 40 0 38.2091 0 36V4Z" fill="#F5F8FC"></path><path d="M15 12.9999L25.9841 7.40903C26.5011 7.14588 27.1328 7.37644 27.3588 7.91076L29.5 12.9744" stroke="#356DFF" stroke-width="2" stroke-linecap="round" stroke-linejoin="round"></path><path d="M8 13H32V29C32 30.6569 30.6569 32 29 32H8V13Z" stroke="#474F5E" stroke-width="2"></path><path d="M13.5 13.5V31.5" stroke="#474F5E" stroke-width="2"></path><circle cx="27" cy="22" r="2" fill="#356DFF"></circle></svg>