<svg width="40" height="40" viewBox="0 0 40 40" fill="none" xmlns="http://www.w3.org/2000/svg"><rect width="40" height="40" rx="4" fill="#F5F8FC"></rect><path fill-rule="evenodd" clip-rule="evenodd" d="M25.0324 11.4678C22.2531 8.68855 17.7471 8.68855 14.9679 11.4678C12.1886 14.247 12.1886 18.753 14.9679 21.5323L20.0001 26.5645L25.0324 21.5323C27.8116 18.753 27.8116 14.247 25.0324 11.4678ZM13.4829 9.98286C17.0823 6.38352 22.9179 6.38352 26.5173 9.98286C30.1166 13.5822 30.1166 19.4179 26.5173 23.0172L20.4126 29.1219C20.1848 29.3497 19.8154 29.3497 19.5876 29.1219L13.4829 23.0172C9.88361 19.4179 9.88361 13.5822 13.4829 9.98286Z" fill="#474F5E"></path><path d="M15.0781 26.7449C14.9906 26.6574 14.8541 26.6407 14.7511 26.7092C13.8783 27.2902 13.1167 28.1754 13.1167 29.3333C13.1167 30.7507 14.2384 31.7512 15.4057 32.3348C16.6357 32.9499 18.2615 33.3 20 33.3C21.7385 33.3 23.3643 32.9499 24.5944 32.3348C25.7616 31.7512 26.8834 30.7507 26.8834 29.3333C26.8834 28.1754 26.1217 27.2902 25.249 26.7092C25.1459 26.6406 25.0093 26.6573 24.9217 26.7449L23.9774 27.6892C23.7559 27.9107 23.8246 28.2838 24.0853 28.4574C24.6771 28.8513 24.7834 29.178 24.7834 29.3333C24.7834 29.5267 24.5993 29.9845 23.6552 30.4565C22.774 30.8971 21.4832 31.2 20 31.2C18.5169 31.2 17.226 30.8971 16.3448 30.4565C15.4008 29.9845 15.2167 29.5267 15.2167 29.3333C15.2167 29.178 15.3229 28.8513 15.9148 28.4574C16.1754 28.2838 16.2441 27.9108 16.0227 27.6894L15.0781 26.7449Z" fill="#474F5E"></path><path fill-rule="evenodd" clip-rule="evenodd" d="M20 15.2167C19.2913 15.2167 18.7167 15.7912 18.7167 16.5C18.7167 17.2088 19.2913 17.7833 20 17.7833C20.7088 17.7833 21.2834 17.2088 21.2834 16.5C21.2834 15.7912 20.7088 15.2167 20 15.2167ZM16.6167 16.5C16.6167 14.6314 18.1315 13.1167 20 13.1167C21.8686 13.1167 23.3834 14.6314 23.3834 16.5C23.3834 18.3686 21.8686 19.8833 20 19.8833C18.1315 19.8833 16.6167 18.3686 16.6167 16.5Z" fill="#356DFF"></path></svg>