<svg width="40" height="40" viewBox="0 0 40 40" fill="none" xmlns="http://www.w3.org/2000/svg"><path d="M0 4C0 1.79086 1.79086 0 4 0H36C38.2091 0 40 1.79086 40 4V36C40 38.2091 38.2091 40 36 40H4C1.79086 40 0 38.2091 0 36V4Z" fill="#F5F8FC"></path><path fill-rule="evenodd" clip-rule="evenodd" d="M9.57568 13.908C9.62323 13.3935 10.0548 13 10.5714 13H29.4286C29.9452 13 30.3768 13.3935 30.4243 13.908L31.9958 30.908C32.0216 31.188 31.9284 31.466 31.7389 31.6738C31.5495 31.8816 31.2812 32 31 32H9C8.71878 32 8.45055 31.8816 8.26107 31.6738C8.07159 31.466 7.97836 31.188 8.00425 30.908L9.57568 13.908ZM11.4833 15L10.0967 30H29.9033L28.5168 15H11.4833Z" fill="#474F5E"></path><rect x="15" y="19" width="4" height="2" rx="0.1" transform="rotate(-90 15 19)" fill="#356DFF"></rect><rect x="23" y="19" width="4" height="2" rx="0.1" transform="rotate(-90 23 19)" fill="#356DFF"></rect><path d="M24 14V11C24 8.79086 22.2091 7 20 7V7C17.7909 7 16 8.79086 16 11L16 14" stroke="#474F5E" stroke-width="2"></path></svg>