<svg width="40" height="40" viewBox="0 0 40 40" fill="none" xmlns="http://www.w3.org/2000/svg"><path d="M0 4C0 1.79086 1.79086 0 4 0H36C38.2091 0 40 1.79086 40 4V36C40 38.2091 38.2091 40 36 40H4C1.79086 40 0 38.2091 0 36V4Z" fill="#F5F8FC"></path><path d="M31 7H32C32 6.44772 31.5523 6 31 6V7ZM9 7V6C8.44772 6 8 6.44772 8 7H9ZM31 33V34C31.5523 34 32 33.5523 32 33H31ZM29.6651 33L28.8542 33.5852C29.0422 33.8457 29.3438 34 29.6651 34V33ZM27.5 30L28.3109 29.4148C28.1229 29.1543 27.8212 29 27.5 29C27.1788 29 26.8771 29.1543 26.6891 29.4148L27.5 30ZM25.3349 33V34C25.6562 34 25.9578 33.8457 26.1458 33.5852L25.3349 33ZM24.6651 33L23.8542 33.5852C24.0422 33.8457 24.3438 34 24.6651 34V33ZM22.5 30L23.3109 29.4148C23.1229 29.1543 22.8212 29 22.5 29C22.1788 29 21.8771 29.1543 21.6891 29.4148L22.5 30ZM20.3349 33V34C20.6562 34 20.9578 33.8457 21.1458 33.5852L20.3349 33ZM19.6651 33L18.8542 33.5852C19.0422 33.8457 19.3438 34 19.6651 34V33ZM17.5 30L18.3109 29.4148C18.1229 29.1543 17.8212 29 17.5 29C17.1788 29 16.8771 29.1543 16.6891 29.4148L17.5 30ZM15.3349 33V34C15.6562 34 15.9578 33.8457 16.1458 33.5852L15.3349 33ZM14.6651 33L13.8542 33.5852C14.0422 33.8457 14.3438 34 14.6651 34V33ZM12.5 30L13.3109 29.4148C13.1229 29.1543 12.8212 29 12.5 29C12.1788 29 11.8771 29.1543 11.6891 29.4148L12.5 30ZM10.3349 33V34C10.6562 34 10.9578 33.8457 11.1458 33.5852L10.3349 33ZM9 33H8C8 33.5523 8.44772 34 9 34V33ZM31 6H9V8H31V6ZM32 33V7H30V33H32ZM29.6651 34H31V32H29.6651V34ZM26.6891 30.5852L28.8542 33.5852L30.4759 32.4148L28.3109 29.4148L26.6891 30.5852ZM26.1458 33.5852L28.3109 30.5852L26.6891 29.4148L24.5241 32.4148L26.1458 33.5852ZM24.6651 34H25.3349V32H24.6651V34ZM21.6891 30.5852L23.8542 33.5852L25.4759 32.4148L23.3109 29.4148L21.6891 30.5852ZM21.1458 33.5852L23.3109 30.5852L21.6891 29.4148L19.5241 32.4148L21.1458 33.5852ZM19.6651 34H20.3349V32H19.6651V34ZM16.6891 30.5852L18.8542 33.5852L20.4759 32.4148L18.3109 29.4148L16.6891 30.5852ZM16.1458 33.5852L18.3109 30.5852L16.6891 29.4148L14.5241 32.4148L16.1458 33.5852ZM14.6651 34H15.3349V32H14.6651V34ZM11.6891 30.5852L13.8542 33.5852L15.4759 32.4148L13.3109 29.4148L11.6891 30.5852ZM11.1458 33.5852L13.3109 30.5852L11.6891 29.4148L9.52405 32.4148L11.1458 33.5852ZM9 34H10.3349V32H9V34ZM8 7V33H10V7H8Z" fill="#474F5E"></path><path d="M13 25L27 25" stroke="#474F5E" stroke-width="2" stroke-linecap="round" stroke-linejoin="round"></path><path d="M17 19L23 13" stroke="#356DFF" stroke-width="2" stroke-linecap="round" stroke-linejoin="round"></path><circle cx="17.5" cy="13.5" r="1.5" fill="#356DFF"></circle><circle cx="22.5" cy="18.5" r="1.5" fill="#356DFF"></circle></svg>